<?xml version="1.0" encoding="utf-8"?>
<!-- Generator: Adobe Illustrator 24.0.1, SVG Export Plug-In . SVG Version: 6.00 Build 0)  -->
<svg version="1.1" id="Capa_1" xmlns="http://www.w3.org/2000/svg" xmlns:xlink="http://www.w3.org/1999/xlink" x="0px" y="0px"
	 viewBox="0 0 300 300" style="enable-background:new 0 0 300 300;" xml:space="preserve">
<style type="text/css">
	.st0{fill:#FFFFFF;}
	.st1{font-family:'MyriadPro-Regular';}
	.st2{font-size:149.7596px;}
	.st3{font-family:'InkFree';}
	.st4{font-size:73.2801px;}
	.st5{font-size:141.712px;}
	.st6{font-size:143.5351px;}
	.st7{font-size:65.9917px;}
	.st8{fill:url(#SVGID_1_);}
	.st9{fill:url(#SVGID_2_);}
	.st10{fill:url(#SVGID_3_);}
</style>
<g>
	<text transform="matrix(1.0175 0 0 1 111.6083 201.5514)" class="st0 st1 st2">O</text>
	<text transform="matrix(1 0 0 1 40.41 94.8043)" class="st0 st3 st4">SHARE</text>
	<text transform="matrix(1 0 0 1 195.724 195.7721)" class="st0 st1 st5">T</text>
	<text transform="matrix(1 0 0 1 34.2928 198.3336)" class="st0 st1 st6">H</text>
	<text transform="matrix(1 0 0 1 42.0043 251.1539)" class="st0 st3 st7">IMAGE</text>
	<g>
		<linearGradient id="SVGID_1_" gradientUnits="userSpaceOnUse" x1="127.3486" y1="98.3354" x2="184.6864" y2="197.6473">
			<stop  offset="0" style="stop-color:#D22F02"/>
			<stop  offset="0.2371" style="stop-color:#CC2D02"/>
			<stop  offset="0.5378" style="stop-color:#BD2602"/>
			<stop  offset="0.8716" style="stop-color:#A31C03"/>
			<stop  offset="1" style="stop-color:#971703"/>
		</linearGradient>
		<path class="st8" d="M185.8,119.97c2.11,2.36,3.43,5.71,3.43,9.44c0,7.13-4.83,12.91-10.79,12.91c-5.96,0-11.34-5.8-10.79-12.91
			c1.35-17.54,1.73-28.53-21.01-42.21c6.55,4.63,22.17,13.88,6.94,36.24c-3.44,5.05-5.01,9.44-3.97,18.03
			c-5.83-11.79-2.59-28.86,1.83-35.88c-5.6,7.21-12.38,14.45-17.57,24.13c-5.19,9.68-8.79,21.81-8.05,38.82
			c0.08,1.88,0.28,3.66,0.57,5.38c2.53,17.56,17.64,31.05,35.9,31.05c20.04,0,36.2-16.24,36.28-36.28
			C198.66,144.32,195.05,127.75,185.8,119.97z"/>
		<linearGradient id="SVGID_2_" gradientUnits="userSpaceOnUse" x1="139.2797" y1="133.4946" x2="175.4215" y2="196.094">
			<stop  offset="0" style="stop-color:#FF6100"/>
			<stop  offset="0.2918" style="stop-color:#FF6D01"/>
			<stop  offset="0.812" style="stop-color:#FF8B02"/>
			<stop  offset="1" style="stop-color:#FF9803"/>
		</linearGradient>
		<path class="st9" d="M176.58,148.16c1.35,1.45,2.19,3.51,2.19,5.8c0,4.38-3.09,7.94-6.9,7.94s-7.25-3.57-6.9-7.94
			c0.86-10.78,0.5-25.41-8.94-30.13c4.19,2.84,9.68,12.72-0.06,26.46c-2.2,3.1-3.21,5.8-2.54,11.08
			c-3.73-7.25-1.65-17.74,1.17-22.05c-3.58,4.43-7.92,8.88-11.24,14.83c-3.32,5.95-5.62,13.41-5.15,23.86
			c0.05,1.15,0.19,2.25,0.37,3.3c1.76,10.77,11.28,19.09,22.96,19.09c12.81,0,23.15-9.98,23.2-22.3
			C184.8,163.12,182.49,152.94,176.58,148.16z"/>
		<linearGradient id="SVGID_3_" gradientUnits="userSpaceOnUse" x1="152.5416" y1="171.0696" x2="166.1227" y2="194.5928">
			<stop  offset="5.128210e-03" style="stop-color:#FF9803"/>
			<stop  offset="0.9949" style="stop-color:#FAF154"/>
		</linearGradient>
		<path class="st10" d="M167.36,176.34c0.59,0.54,0.96,1.31,0.96,2.16c0,1.63-1.35,2.96-3.01,2.96c-1.66,0-3.17-1.33-3.01-2.96
			c0.38-4.02,0.48-6.54-5.86-9.68c1.83,1.06,6.19,3.18,1.94,8.31c-0.96,1.16-1.4,2.16-1.11,4.13c-1.63-2.7-0.72-6.61,0.51-8.22
			c-1.56,1.65-3.46,3.31-4.9,5.53s-2.45,5-2.25,8.9c0.02,0.43,0.08,0.84,0.16,1.23c0.71,4.02,4.92,7.12,10.02,7.12
			c5.59,0,10.11-3.72,10.13-8.32C170.95,181.92,169.94,178.12,167.36,176.34z"/>
	</g>
</g>
</svg>
